<svg width="300" height="300" viewBox="0 0 300 300" fill="none" xmlns="http://www.w3.org/2000/svg">
<g clip-path="url(#clip0_1_4)">
<path d="M279.824 108.635H275.866V104.677H273.058V108.635H269.1V111.444H273.058V115.402H275.866V111.444H279.824V108.635Z" fill="#BEBEBE"/>
<path d="M258.909 171.303H255.412V167.806H252.93V171.303H249.433V173.785H252.93V177.283H255.412V173.785H258.909V171.303Z" fill="#BEBEBE"/>
<path d="M109.516 70.6938H106.018V67.1958H103.536V70.6938H100.039V73.1754H103.536V76.6728H106.018V73.1754H109.516V70.6938Z" fill="#BEBEBE"/>
<path d="M273.324 126.465H270.788V123.928H268.988V126.465H266.452V128.265H268.988V130.801H270.788V128.265H273.324V126.465Z" fill="#BEBEBE"/>
<path d="M98.1066 86.0358H95.5704V83.4996H93.7704V86.0358H91.2342V87.8358H93.7704V90.3726H95.5704V87.8358H98.1066V86.0358Z" fill="#BEBEBE"/>
<path d="M31.6116 116.628H28.1136V113.131H25.632V116.628H22.1352V119.11H25.632V122.608H28.1136V119.11H31.6116V116.628Z" fill="#BEBEBE"/>
<path d="M32.8908 225.709H30.3546V223.172H28.5546V225.709H26.0184V227.509H28.5546V230.045H30.3546V227.509H32.8908V225.709Z" fill="#BEBEBE"/>
<path d="M26.0184 177.17C27.3141 177.17 28.3644 176.12 28.3644 174.824C28.3644 173.529 27.3141 172.478 26.0184 172.478C24.7227 172.478 23.6724 173.529 23.6724 174.824C23.6724 176.12 24.7227 177.17 26.0184 177.17Z" fill="#E7E7E7"/>
<path d="M275.245 148.604C275.245 149.288 274.691 149.842 274.006 149.842C273.322 149.842 272.768 149.288 272.768 148.604C272.768 147.92 273.322 147.365 274.006 147.365C274.691 147.365 275.245 147.919 275.245 148.604Z" fill="#E7E7E7"/>
<path d="M274.295 226.609C274.295 227.905 273.245 228.955 271.949 228.955C270.654 228.955 269.603 227.905 269.603 226.609C269.603 225.314 270.653 224.263 271.949 224.263C273.245 224.263 274.295 225.313 274.295 226.609Z" fill="#E7E7E7"/>
<path d="M109.262 50.0256C109.262 50.7096 108.708 51.2646 108.023 51.2646C107.339 51.2646 106.785 50.7102 106.785 50.0256C106.785 49.3416 107.339 48.7872 108.023 48.7872C108.708 48.7866 109.262 49.3416 109.262 50.0256Z" fill="#E7E7E7"/>
<path d="M83.3706 51.5394C83.3706 52.8348 82.3206 53.8854 81.0246 53.8854C79.7286 53.8854 78.6786 52.8348 78.6786 51.5394C78.6786 50.244 79.7292 49.1934 81.0246 49.1934C82.32 49.1934 83.3706 50.244 83.3706 51.5394Z" fill="#E7E7E7"/>
<path d="M126.122 59.8854C127.418 59.8854 128.468 58.8351 128.468 57.5394C128.468 56.2437 127.418 55.1934 126.122 55.1934C124.827 55.1934 123.776 56.2437 123.776 57.5394C123.776 58.8351 124.827 59.8854 126.122 59.8854Z" fill="#E7E7E7"/>
<path d="M22.653 138.417C22.653 139.101 22.0986 139.656 21.414 139.656C20.73 139.656 20.1756 139.102 20.1756 138.417C20.1756 137.733 20.73 137.179 21.414 137.179C22.0986 137.179 22.653 137.733 22.653 138.417Z" fill="#E7E7E7"/>
<path d="M46.0308 179.356C46.0308 180.04 45.4764 180.595 44.7918 180.595C44.1078 180.595 43.5534 180.041 43.5534 179.356C43.5534 178.672 44.1078 178.118 44.7918 178.118C45.4758 178.118 46.0308 178.672 46.0308 179.356Z" fill="#E7E7E7"/>
<path d="M269.163 83.6394C269.163 84.3234 268.609 84.8784 267.924 84.8784C267.24 84.8784 266.686 84.324 266.686 83.6394C266.686 82.9554 267.24 82.401 267.924 82.401C268.608 82.401 269.163 82.9554 269.163 83.6394Z" fill="#E7E7E7"/>
<path d="M223.009 61.0464C223.009 61.7304 222.455 62.2848 221.77 62.2848C221.086 62.2848 220.532 61.7304 220.532 61.0464C220.532 60.3624 221.086 59.8074 221.77 59.8074C222.455 59.808 223.009 60.3624 223.009 61.0464Z" fill="#E7E7E7"/>
<path d="M241.749 56.1768C243.045 56.1768 244.095 55.1265 244.095 53.8308C244.095 52.5351 243.045 51.4848 241.749 51.4848C240.453 51.4848 239.403 52.5351 239.403 53.8308C239.403 55.1265 240.453 56.1768 241.749 56.1768Z" fill="#E7E7E7"/>
<path d="M279.263 214.793C279.263 215.477 278.708 216.032 278.024 216.032C277.34 216.032 276.785 215.478 276.785 214.793C276.785 214.109 277.34 213.554 278.024 213.554C278.708 213.554 279.263 214.109 279.263 214.793Z" fill="#E7E7E7"/>
<path d="M57.4638 53.8854C57.4638 54.5694 56.9094 55.1238 56.2248 55.1238C55.5408 55.1238 54.9864 54.5694 54.9864 53.8854C54.9864 53.2014 55.5408 52.6464 56.2248 52.6464C56.9088 52.6464 57.4638 53.2014 57.4638 53.8854Z" fill="#E7E7E7"/>
<path d="M149.936 250.635C219.488 250.635 275.872 245.687 275.872 239.583C275.872 233.48 219.488 228.532 149.936 228.532C80.3834 228.532 24 233.48 24 239.583C24 245.687 80.3834 250.635 149.936 250.635Z" fill="#DFDFDF"/>
<path d="M237.857 234.564C237.857 234.564 219.144 196.576 276.227 180.017C276.227 180.017 280.204 237.582 237.857 234.564Z" fill="#AAAAAA"/>
<mask id="mask0_1_4" style="mask-type:luminance" maskUnits="userSpaceOnUse" x="234" y="180" width="43" height="55">
<path d="M237.857 234.564C237.857 234.564 219.144 196.576 276.227 180.017C276.227 180.017 280.204 237.582 237.857 234.564Z" fill="white"/>
</mask>
<g mask="url(#mask0_1_4)">
<path d="M283.882 188.859L283.555 188.312C272.27 195.029 261.999 197.387 258.964 197.976C261.791 194.637 264.578 191.577 267.101 188.928C268.236 188.717 276.013 187.102 283.909 181.219L283.528 180.709C276.881 185.661 270.341 187.539 267.884 188.11C273.366 182.41 277.418 178.799 277.539 178.692L277.115 178.215C276.992 178.324 272.853 182.014 267.274 187.827C267.812 180.592 271.364 173.505 271.402 173.432L270.832 173.145C270.793 173.221 266.932 180.918 266.591 188.543C264.061 191.203 261.268 194.272 258.436 197.621C258.639 188.152 262.693 177.057 262.735 176.943L262.136 176.722C262.092 176.841 257.774 188.65 257.787 198.393C255.056 201.657 252.309 205.172 249.741 208.825C249.241 195.186 253.273 181.117 253.315 180.973L252.701 180.796C252.658 180.943 248.429 195.688 249.137 209.691C247.237 212.442 245.447 215.265 243.854 218.112C241.029 203.449 244.67 190.139 244.708 190.004L244.093 189.832C244.054 189.972 240.243 203.875 243.374 218.987C241.811 221.857 240.458 224.745 239.395 227.606C235.783 217.351 235.081 202.663 235.237 201.815L234.608 201.7C234.44 202.618 235.091 217.942 239.056 228.547C238.086 231.321 237.398 234.063 237.079 236.727L237.712 236.803C238.021 234.23 238.679 231.583 239.604 228.904C240.349 229.059 242.498 229.425 246.197 229.425C246.488 229.425 246.791 229.423 247.103 229.419C251.878 229.344 259.936 228.616 271.202 225.571L271.034 224.957C251.824 230.149 241.741 228.668 239.815 228.294C240.884 225.325 242.281 222.319 243.903 219.334C244.417 219.384 245.756 219.493 247.706 219.493C253.847 219.493 265.916 218.404 276.414 210.934L276.043 210.415C262.877 219.784 247.199 218.976 244.238 218.725C245.868 215.782 247.712 212.863 249.677 210.019C251.647 209.82 269.185 207.81 280.867 198.703L280.474 198.202C269.657 206.634 253.721 208.911 250.16 209.326C252.76 205.618 255.55 202.05 258.321 198.741C259.825 198.488 271.23 196.39 283.882 188.859Z" fill="#B9B7B4"/>
</g>
<path opacity="0.1" d="M276.227 180.017C272.851 180.997 269.748 182.053 266.882 183.171C268.118 186.868 268.794 190.865 268.794 195.036C268.794 213.989 254.865 229.353 237.682 229.353C237.135 229.353 236.591 229.337 236.05 229.306C236.878 232.571 237.856 234.564 237.856 234.564C280.204 237.582 276.227 180.017 276.227 180.017Z" fill="white"/>
<path d="M68.1306 230.549C68.1306 230.549 34.9746 238.456 32.0784 190.805C32.0784 190.805 78.003 197.919 68.1306 230.549Z" fill="#B9B7B4"/>
<mask id="mask1_1_4" style="mask-type:luminance" maskUnits="userSpaceOnUse" x="32" y="190" width="38" height="42">
<path d="M68.1306 230.549C68.1306 230.549 34.9746 238.456 32.0784 190.805C32.0784 190.806 78.003 197.919 68.1306 230.549Z" fill="white"/>
</mask>
<g mask="url(#mask1_1_4)">
<path d="M40.38 186.381L39.8922 186.54C43.17 196.572 43.2024 205.035 43.1274 207.517C41.0052 204.709 39.096 201.983 37.4616 199.536C37.4964 198.61 37.6062 192.232 34.3824 185.002L33.9144 185.21C36.627 191.296 36.9438 196.751 36.957 198.777C33.4512 193.471 31.332 189.656 31.269 189.541L30.8196 189.789C30.8832 189.905 33.0486 193.802 36.6276 199.204C31.0398 197.497 26.1012 193.456 26.0502 193.414L25.7232 193.81C25.7766 193.854 31.1388 198.246 37.068 199.867C38.7096 202.321 40.6254 205.054 42.7548 207.868C35.352 206.026 27.3552 200.88 27.2724 200.826L26.9934 201.256C27.0786 201.312 35.5908 206.791 43.2462 208.513C45.327 211.231 47.6016 214.008 50.0166 216.668C39.2136 214.636 28.8756 208.979 28.77 208.921L28.5222 209.37C28.6302 209.43 39.4638 215.362 50.589 217.295C52.4136 219.272 54.3138 221.175 56.268 222.929C44.2488 222.537 34.4382 217.32 34.3386 217.266L34.095 217.717C34.1976 217.773 44.4444 223.228 56.8698 223.46C58.8474 225.193 60.8766 226.767 62.9358 228.108C54.2394 229.115 42.5772 227.055 41.9388 226.782L41.7372 227.254C42.4284 227.55 54.5808 229.762 63.6144 228.541C65.6214 229.793 67.6536 230.819 69.69 231.543L69.8616 231.06C67.8954 230.361 65.9322 229.375 63.9918 228.175C64.2456 227.619 64.9146 226 65.5692 223.104C65.6208 222.876 65.673 222.638 65.7246 222.393C66.5118 218.64 67.3668 212.2 66.9714 202.836L66.459 202.857C67.134 218.826 64.185 226.459 63.5502 227.902C61.407 226.537 59.2938 224.909 57.2352 223.108C57.3654 222.715 57.6882 221.686 58.0338 220.158C59.1216 215.347 60.4044 205.701 56.3958 196.153L55.923 196.351C60.951 208.327 57.5382 220.463 56.817 222.738C54.7944 220.938 52.8276 218.975 50.9418 216.931C51.1338 215.353 52.662 201.26 47.5776 190.492L47.1144 190.711C51.8214 200.681 50.787 213.567 50.4828 216.429C48.0306 213.735 45.7224 210.916 43.6134 208.157C43.6824 206.934 44.055 197.628 40.38 186.381Z" fill="#AAAAAA"/>
</g>
<path opacity="0.1" d="M32.0784 190.806C32.2494 193.624 32.5302 196.242 32.9004 198.685C36.0246 198.375 39.2838 198.555 42.5604 199.296C57.4488 202.663 67.0506 216.303 64.0068 229.761C63.9096 230.189 63.8004 230.613 63.6804 231.03C66.3924 230.962 68.1306 230.55 68.1306 230.55C78.003 197.919 32.0784 190.806 32.0784 190.806Z" fill="white"/>
<path d="M244.629 209.415C244.629 212.055 242.469 214.215 239.829 214.215H60.0426C57.4026 214.215 55.2426 212.055 55.2426 209.415V101.077C55.2426 98.4374 57.4026 96.2774 60.0426 96.2774H239.829C242.469 96.2774 244.629 98.4374 244.629 101.077V209.415Z" fill="#747474"/>
<path d="M239.284 102.061H60.588V208.431H239.284V102.061Z" fill="#D6D6D6"/>
<path d="M179.336 214.215H120.535V228.942H179.336V214.215Z" fill="#A0A0A0"/>
<path d="M207.479 237.396C196.726 228.714 174.995 222.778 149.936 222.778C124.877 222.778 103.146 228.714 92.3922 237.396H207.479Z" fill="#747474"/>
<path d="M92.3922 238.896C93.42 238.896 94.4478 238.896 95.4756 238.896C98.2722 238.896 101.069 238.896 103.866 238.896C107.981 238.896 112.097 238.896 116.212 238.896C121.255 238.896 126.297 238.896 131.339 238.896C136.863 238.896 142.387 238.896 147.911 238.896C153.462 238.896 159.013 238.896 164.564 238.896C169.764 238.896 174.964 238.896 180.164 238.896C184.558 238.896 188.951 238.896 193.345 238.896C196.492 238.896 199.639 238.896 202.785 238.896C204.283 238.896 205.787 238.933 207.285 238.896C207.35 238.894 207.415 238.896 207.479 238.896C209.409 238.896 209.413 235.896 207.479 235.896C206.451 235.896 205.423 235.896 204.395 235.896C201.599 235.896 198.802 235.896 196.005 235.896C191.89 235.896 187.774 235.896 183.659 235.896C178.616 235.896 173.574 235.896 168.532 235.896C163.008 235.896 157.484 235.896 151.96 235.896C146.409 235.896 140.858 235.896 135.307 235.896C130.107 235.896 124.907 235.896 119.707 235.896C115.313 235.896 110.92 235.896 106.526 235.896C103.379 235.896 100.232 235.896 97.086 235.896C95.5878 235.896 94.0842 235.86 92.586 235.896C92.5212 235.898 92.4564 235.896 92.3922 235.896C90.462 235.896 90.4584 238.896 92.3922 238.896Z" fill="#A0A0A0"/>
<path d="M229.523 109.462H70.3482V201.492H229.523V109.462Z" fill="white"/>
<path d="M229.523 109.462H70.3482V118.33H229.523V109.462Z" fill="#E7E7E7"/>
<path d="M78.0858 114.1C78.0858 115.221 77.1774 116.129 76.0566 116.129C74.9358 116.129 74.0274 115.221 74.0274 114.1C74.0274 112.979 74.9358 112.071 76.0566 112.071C77.1768 112.071 78.0858 112.979 78.0858 114.1Z" fill="#AAAAAA"/>
<path d="M84.9186 114.1C84.9186 115.221 84.0102 116.129 82.8894 116.129C81.7686 116.129 80.8602 115.221 80.8602 114.1C80.8602 112.979 81.7686 112.071 82.8894 112.071C84.0102 112.071 84.9186 112.979 84.9186 114.1Z" fill="#B9B7B4"/>
<path d="M91.752 114.1C91.752 115.221 90.8436 116.129 89.7228 116.129C88.602 116.129 87.6936 115.221 87.6936 114.1C87.6936 112.979 88.602 112.071 89.7228 112.071C90.8436 112.071 91.752 112.979 91.752 114.1Z" fill="#747474"/>
<path d="M206.179 157.255C206.179 162.74 201.465 167.227 195.704 167.227H107.146C101.384 167.227 96.6714 162.74 96.6714 157.255C96.6714 151.771 101.385 147.283 107.146 147.283H195.704C201.465 147.283 206.179 151.771 206.179 157.255Z" fill="#E7E7E7"/>
<path d="M118.577 161.956L114.943 158.575C115.491 157.798 115.774 156.871 115.739 155.904C115.697 154.737 115.204 153.657 114.349 152.861C113.494 152.065 112.381 151.651 111.214 151.693C110.047 151.735 108.966 152.229 108.171 153.084C107.375 153.939 106.96 155.052 107.002 156.219C107.044 157.386 107.538 158.466 108.393 159.262C109.248 160.057 110.361 160.472 111.528 160.43C112.494 160.395 113.399 160.047 114.134 159.444L117.768 162.825L118.577 161.956ZM109.202 158.393C108.579 157.813 108.22 157.026 108.189 156.177C108.158 155.326 108.461 154.516 109.04 153.893C109.619 153.27 110.407 152.911 111.257 152.88C112.107 152.85 112.918 153.152 113.54 153.731C114.163 154.311 114.523 155.098 114.553 155.947C114.584 156.798 114.281 157.608 113.702 158.231C113.122 158.854 112.335 159.213 111.485 159.244C110.635 159.275 109.824 158.973 109.202 158.393Z" fill="#747474"/>
<path d="M134.336 158.113C134.903 158.113 135.364 157.653 135.364 157.086C135.364 156.518 134.903 156.058 134.336 156.058C133.768 156.058 133.308 156.518 133.308 157.086C133.308 157.653 133.768 158.113 134.336 158.113Z" fill="white"/>
<path d="M146.336 158.113C146.903 158.113 147.364 157.653 147.364 157.086C147.364 156.518 146.903 156.058 146.336 156.058C145.768 156.058 145.308 156.518 145.308 157.086C145.308 157.653 145.768 158.113 146.336 158.113Z" fill="white"/>
<path d="M158.336 158.113C158.903 158.113 159.364 157.653 159.364 157.086C159.364 156.518 158.903 156.058 158.336 156.058C157.768 156.058 157.308 156.518 157.308 157.086C157.308 157.653 157.768 158.113 158.336 158.113Z" fill="white"/>
<path d="M170.336 158.113C170.903 158.113 171.364 157.653 171.364 157.086C171.364 156.518 170.903 156.058 170.336 156.058C169.768 156.058 169.308 156.518 169.308 157.086C169.308 157.653 169.768 158.113 170.336 158.113Z" fill="white"/>
<path d="M264.961 73.5374H185.733V160.705H264.961V73.5374Z" fill="white"/>
<path d="M264.961 73.5374H185.733V83.3636H264.961V73.5374Z" fill="#E7E7E7"/>
<path d="M194.306 78.677C194.306 79.919 193.3 80.9258 192.058 80.9258C190.816 80.9258 189.809 79.919 189.809 78.677C189.809 77.435 190.816 76.4282 192.058 76.4282C193.3 76.4282 194.306 77.4356 194.306 78.677Z" fill="#AAAAAA"/>
<path d="M201.878 78.677C201.878 79.919 200.872 80.9258 199.63 80.9258C198.388 80.9258 197.381 79.919 197.381 78.677C197.381 77.435 198.388 76.4282 199.63 76.4282C200.872 76.4282 201.878 77.4356 201.878 78.677Z" fill="#B9B7B4"/>
<path d="M209.45 78.677C209.45 79.919 208.443 80.9258 207.201 80.9258C205.959 80.9258 204.952 79.919 204.952 78.677C204.952 77.435 205.959 76.4282 207.201 76.4282C208.443 76.4282 209.45 77.4356 209.45 78.677Z" fill="#747474"/>
<path d="M241.697 128.181L238.424 131.453L267.752 160.781L271.025 157.509L241.697 128.181Z" fill="#AAAAAA"/>
<path d="M242.714 126.312L236.557 132.469L245.139 141.051L251.295 134.894L242.714 126.312Z" fill="#747474"/>
<g opacity="0.2">
<path d="M240.063 129.816C232.392 137.487 219.91 137.487 212.239 129.816C204.568 122.145 204.568 109.663 212.239 101.992C219.91 94.3208 232.392 94.3208 240.063 101.992C247.734 109.663 247.734 122.145 240.063 129.816Z" fill="white"/>
</g>
<path d="M241.931 131.684C233.23 140.385 219.072 140.385 210.371 131.684C201.671 122.983 201.671 108.825 210.371 100.125C219.072 91.424 233.23 91.4234 241.931 100.125C250.631 108.825 250.631 122.983 241.931 131.684ZM213.643 103.396C206.746 110.293 206.747 121.515 213.643 128.411C220.54 135.307 231.761 135.308 238.658 128.411C245.555 121.514 245.554 110.293 238.658 103.396C231.761 96.5 220.54 96.4994 213.643 103.396Z" fill="#AAAAAA"/>
<path d="M235.937 109L233.055 106.118L226.151 113.022L219.247 106.118L216.365 109L223.269 115.904L216.365 122.808L219.247 125.69L226.151 118.786L233.055 125.69L235.937 122.808L229.033 115.904L235.937 109Z" fill="#B9B7B4"/>
<path d="M99.894 174.246H64.0542V238.993H119.335V192.87L99.894 174.246Z" fill="#AAAAAA"/>
<path d="M99.894 174.246L119.335 192.87H99.894V174.246Z" fill="#ECEBEB"/>
<path d="M85.7988 199.129C85.7988 201.072 84.6696 202.648 83.277 202.648C81.8844 202.648 80.7552 201.072 80.7552 199.129C80.7552 197.185 81.8844 195.61 83.277 195.61C84.6696 195.61 85.7988 197.185 85.7988 199.129Z" fill="white"/>
<path d="M100.042 202.648C101.435 202.648 102.564 201.072 102.564 199.129C102.564 197.185 101.435 195.61 100.042 195.61C98.6494 195.61 97.5204 197.185 97.5204 199.129C97.5204 201.072 98.6494 202.648 100.042 202.648Z" fill="white"/>
<path d="M84.6456 209.692C85.695 208.543 87.1542 207.64 88.6068 207.116C92.2824 205.791 95.8356 207.175 98.6352 209.692C99.3828 210.364 100.493 209.26 99.7422 208.585C96.6384 205.795 92.6124 204.156 88.4838 205.506C86.673 206.097 84.8346 207.165 83.538 208.585C82.8606 209.328 83.9646 210.439 84.6456 209.692Z" fill="white"/>
<path d="M81.0102 65.075H40.6962C38.2914 65.075 36.324 67.0424 36.324 69.4472V97.7258C36.324 100.131 38.2914 102.098 40.6962 102.098H54.861L60.8532 109.397L66.8454 102.098H81.0102C83.415 102.098 85.3824 100.131 85.3824 97.7258V69.4472C85.3824 67.0424 83.415 65.075 81.0102 65.075Z" fill="#B9B7B4"/>
<path d="M60.8532 70.3292C53.4918 70.3292 47.5032 76.3178 47.5032 83.6792C47.5032 91.0406 53.4918 97.0292 60.8532 97.0292C68.2146 97.0292 74.2032 91.04 74.2032 83.6792C74.2032 76.3178 68.2146 70.3292 60.8532 70.3292ZM60.8532 72.8462C63.387 72.8462 65.7186 73.7234 67.566 75.1862L52.3608 90.392C50.898 88.5446 50.0208 86.213 50.0208 83.6792C50.0202 77.7062 54.8802 72.8462 60.8532 72.8462ZM60.8532 94.5116C58.3194 94.5116 55.9878 93.635 54.1404 92.1716L69.3456 76.9664C70.809 78.8132 71.6856 81.1454 71.6856 83.6792C71.6862 89.6522 66.8268 94.5116 60.8532 94.5116Z" fill="white"/>
<path d="M231.484 178.779L198.048 178.558L197.65 238.961L249.222 239.302L249.506 196.273L231.484 178.779Z" fill="#D6D6D6"/>
<path d="M231.484 178.779L249.506 196.273L231.37 196.153L231.484 178.779Z" fill="white"/>
<path d="M234.573 201.295L231.388 198.068L223.657 205.698L216.026 197.967L212.799 201.151L220.429 208.882L212.698 216.513L215.882 219.739L223.614 212.11L231.245 219.841L234.472 216.656L226.841 208.925L234.573 201.295Z" fill="white"/>
<path d="M62.8998 132.187L42.8898 122.157L24.7704 158.307L55.6356 173.777L68.5422 148.026L62.8998 132.187Z" fill="#D6D6D6"/>
<path d="M62.8998 132.187L68.5422 148.026L57.6882 142.585L62.8998 132.187Z" fill="white"/>
<path d="M58.0896 146.62L57.1326 143.74L50.232 146.033L47.9388 139.132L45.0588 140.089L47.3514 146.989L40.4508 149.282L41.4078 152.163L48.3084 149.87L50.6016 156.771L53.4822 155.814L51.189 148.913L58.0896 146.62Z" fill="white"/>
<path d="M137.75 65.084L121.735 70.2956L131.15 99.2282L155.853 91.19L149.146 70.5794L137.75 65.084Z" fill="#D6D6D6"/>
<path d="M137.75 65.084L149.146 70.5794L140.459 73.406L137.75 65.084Z" fill="white"/>
<path d="M142.807 75.3542L140.772 74.3186L138.29 79.1948L133.414 76.7126L132.378 78.7478L137.254 81.23L134.772 86.1062L136.807 87.1418L139.289 82.2656L144.166 84.7478L145.202 82.712L140.326 80.2304L142.807 75.3542Z" fill="white"/>
<path d="M187.192 62.3078L185.79 62.303C185.497 61.0634 185.013 59.9006 184.369 58.8422L185.365 57.8528C186.142 57.0812 186.147 55.8134 185.375 55.0364L184.219 53.8718C183.446 53.0948 182.179 53.09 181.402 53.8622L180.406 54.8516C179.351 54.2006 178.192 53.708 176.955 53.4068L176.96 52.004C176.963 50.9084 176.071 50.009 174.975 50.0054L173.334 50C172.238 49.9964 171.339 50.8892 171.335 51.9848L171.331 53.3876C170.091 53.681 168.928 54.1646 167.87 54.809L166.88 53.8124C166.108 53.0348 164.841 53.0306 164.064 53.8028L162.899 54.959C162.122 55.7312 162.118 56.9984 162.89 57.7754L163.879 58.772C163.228 59.8262 162.736 60.9854 162.434 62.2232L161.031 62.2184C159.935 62.2148 159.036 63.1076 159.032 64.2032L159.027 65.8442C159.023 66.9398 159.916 67.8392 161.012 67.8428L162.415 67.8476C162.707 69.0872 163.192 70.25 163.836 71.3084L162.839 72.2978C162.062 73.0694 162.058 74.3372 162.83 75.1142L163.986 76.2788C164.758 77.0558 166.025 77.0606 166.803 76.2884L167.799 75.299C168.853 75.9506 170.012 76.4426 171.25 76.7444L171.245 78.1472C171.242 79.2428 172.135 80.1422 173.23 80.1458L174.871 80.1512C175.967 80.1548 176.866 79.262 176.87 78.1664L176.875 76.7636C178.114 76.4708 179.277 75.9866 180.335 75.3422L181.325 76.3388C182.096 77.1158 183.364 77.1206 184.141 76.3484L185.306 75.1922C186.083 74.4206 186.088 73.1528 185.315 72.3758L184.326 71.3798C184.978 70.3256 185.47 69.1664 185.771 67.9286L187.174 67.9334C188.269 67.937 189.169 67.0442 189.172 65.9486L189.178 64.3076C189.181 63.2114 188.287 62.312 187.192 62.3078ZM174.082 70.6322C171.013 70.6214 168.534 68.1248 168.544 65.0558C168.555 61.9868 171.052 59.5076 174.121 59.5178C177.19 59.5286 179.669 62.0246 179.659 65.0942C179.648 68.1632 177.151 70.6424 174.082 70.6322Z" fill="#AAAAAA"/>
<path d="M174.129 57.1466C169.75 57.1316 166.188 60.6692 166.173 65.0474C166.158 69.4262 169.695 72.9884 174.074 73.0034C178.453 73.0184 182.014 69.4808 182.03 65.102C182.045 60.7238 178.508 57.1616 174.129 57.1466ZM174.085 69.9986C171.365 69.989 169.169 67.7774 169.178 65.0582C169.187 62.339 171.399 60.1424 174.118 60.1514C176.837 60.161 179.034 62.3726 179.025 65.0924C179.015 67.811 176.804 70.0082 174.085 69.9986Z" fill="#B9B7B4"/>
</g>
<defs>
<clipPath id="clip0_1_4">
<rect width="300" height="300" fill="white"/>
</clipPath>
</defs>
</svg>
